<?xml version="1.0" encoding="UTF-8"?>
<svg xmlns="http://www.w3.org/2000/svg" xmlns:xlink="http://www.w3.org/1999/xlink" width="270pt" height="240pt" viewBox="0 0 270 240" version="1.1">
<g id="surface1">
<path style=" stroke:none;fill-rule:nonzero;fill:rgb(0%,0%,0%);fill-opacity:1;" d="M 258.75 30 L 41.25 30 C 35.035156 30 30 35.035156 30 41.25 L 30 45 L 11.25 45 C 5.035156 45 0 50.035156 0 56.25 L 0 183.75 C 0 198.25 11.75 210 26.25 210 L 247.5 210 C 259.925781 210 270 199.925781 270 187.5 L 270 41.25 C 270 35.035156 264.964844 30 258.75 30 Z M 26.25 187.5 C 24.175781 187.5 22.5 185.824219 22.5 183.75 L 22.5 67.5 L 30 67.5 L 30 183.75 C 30 185.824219 28.324219 187.5 26.25 187.5 Z M 136.875 180 L 65.625 180 C 62.519531 180 60 177.480469 60 174.375 L 60 170.625 C 60 167.519531 62.519531 165 65.625 165 L 136.875 165 C 139.980469 165 142.5 167.519531 142.5 170.625 L 142.5 174.375 C 142.5 177.480469 139.980469 180 136.875 180 Z M 234.375 180 L 163.125 180 C 160.019531 180 157.5 177.480469 157.5 174.375 L 157.5 170.625 C 157.5 167.519531 160.019531 165 163.125 165 L 234.375 165 C 237.480469 165 240 167.519531 240 170.625 L 240 174.375 C 240 177.480469 237.480469 180 234.375 180 Z M 136.875 135 L 65.625 135 C 62.519531 135 60 132.480469 60 129.375 L 60 125.625 C 60 122.519531 62.519531 120 65.625 120 L 136.875 120 C 139.980469 120 142.5 122.519531 142.5 125.625 L 142.5 129.375 C 142.5 132.480469 139.980469 135 136.875 135 Z M 234.375 135 L 163.125 135 C 160.019531 135 157.5 132.480469 157.5 129.375 L 157.5 125.625 C 157.5 122.519531 160.019531 120 163.125 120 L 234.375 120 C 237.480469 120 240 122.519531 240 125.625 L 240 129.375 C 240 132.480469 237.480469 135 234.375 135 Z M 234.375 90 L 65.625 90 C 62.519531 90 60 87.480469 60 84.375 L 60 65.625 C 60 62.519531 62.519531 60 65.625 60 L 234.375 60 C 237.480469 60 240 62.519531 240 65.625 L 240 84.375 C 240 87.480469 237.480469 90 234.375 90 Z M 234.375 90 "/>
</g>
</svg>
