<?xml version="1.0" encoding="UTF-8"?>
<svg xmlns="http://www.w3.org/2000/svg" xmlns:xlink="http://www.w3.org/1999/xlink" width="240pt" height="240pt" viewBox="0 0 240 240" version="1.1">
<g id="surface1">
<path style=" stroke:none;fill-rule:nonzero;fill:rgb(0%,0%,0%);fill-opacity:1;" d="M 48.75 105 L 11.25 105 C 5.035156 105 0 110.035156 0 116.25 L 0 228.75 C 0 234.964844 5.035156 240 11.25 240 L 48.75 240 C 54.964844 240 60 234.964844 60 228.75 L 60 116.25 C 60 110.035156 54.964844 105 48.75 105 Z M 30 221.25 C 23.785156 221.25 18.75 216.214844 18.75 210 C 18.75 203.785156 23.785156 198.75 30 198.75 C 36.214844 198.75 41.25 203.785156 41.25 210 C 41.25 216.214844 36.214844 221.25 30 221.25 Z M 180 38.179688 C 180 58.0625 167.828125 69.214844 164.402344 82.5 L 212.082031 82.5 C 227.738281 82.5 239.925781 95.503906 240 109.734375 C 240.039062 118.144531 236.460938 127.191406 230.890625 132.796875 L 230.835938 132.847656 C 235.449219 143.785156 234.695312 159.113281 226.472656 170.097656 C 230.539062 182.234375 226.4375 197.144531 218.792969 205.140625 C 220.808594 213.386719 219.847656 220.40625 215.910156 226.0625 C 206.34375 239.804688 182.632812 240 162.578125 240 L 161.246094 240 C 138.609375 239.992188 120.085938 231.75 105.203125 225.128906 C 97.722656 221.800781 87.941406 217.683594 80.523438 217.542969 C 77.457031 217.488281 75 214.988281 75 211.921875 L 75 111.714844 C 75 110.214844 75.601562 108.777344 76.667969 107.722656 C 95.238281 89.375 103.21875 69.945312 118.441406 54.699219 C 125.378906 47.75 127.902344 37.246094 130.34375 27.09375 C 132.429688 18.421875 136.789062 0 146.25 0 C 157.5 0 180 3.75 180 38.179688 Z M 180 38.179688 "/>
</g>
</svg>
