<?xml version="1.0" encoding="UTF-8" standalone="no"?>
<!-- Created with Inkscape (http://www.inkscape.org/) -->

<svg
   xmlns:dc="http://purl.org/dc/elements/1.1/"
   xmlns:cc="http://creativecommons.org/ns#"
   xmlns:rdf="http://www.w3.org/1999/02/22-rdf-syntax-ns#"
   xmlns:svg="http://www.w3.org/2000/svg"
   xmlns="http://www.w3.org/2000/svg"
   xmlns:xlink="http://www.w3.org/1999/xlink"
   xmlns:sodipodi="http://sodipodi.sourceforge.net/DTD/sodipodi-0.dtd"
   xmlns:inkscape="http://www.inkscape.org/namespaces/inkscape"
   width="444.11066"
   height="444.08298"
   id="svg2"
   version="1.1"
   inkscape:version="0.48.2 r9819"
   sodipodi:docname="Nouveau document 1">
  <defs
     id="defs4">
    <clipPath
       id="clipPath3295"
       clipPathUnits="userSpaceOnUse">
      <path
         id="path3297"
         d="m 0,561.24 283.44,0 L 283.44,0 0,0 0,561.24 z"
         inkscape:connector-curvature="0" />
    </clipPath>
    <clipPath
       id="clipPath3289"
       clipPathUnits="userSpaceOnUse">
      <path
         id="path3291"
         d="m 0,561.26 283.464,0 L 283.464,0 0,0 0,561.26 z"
         inkscape:connector-curvature="0" />
    </clipPath>
    <linearGradient
       id="linearGradient3061"
       spreadMethod="pad"
       gradientTransform="matrix(0,19.035,-19.035,0,245.783,29.93)"
       gradientUnits="userSpaceOnUse"
       y2="0"
       x2="1"
       y1="0"
       x1="0">
      <stop
         id="stop3063"
         offset="0"
         style="stop-opacity:1;stop-color:#9ea0a2" />
      <stop
         id="stop3065"
         offset="0.87"
         style="stop-opacity:1;stop-color:#f1f1f2" />
      <stop
         id="stop3067"
         offset="1"
         style="stop-opacity:1;stop-color:#9ea0a2" />
    </linearGradient>
    <clipPath
       id="clipPath3029"
       clipPathUnits="userSpaceOnUse">
      <path
         id="path3031"
         d="m 0,561.24 283.44,0 L 283.44,0 0,0 0,561.24 z"
         inkscape:connector-curvature="0" />
    </clipPath>
    <clipPath
       id="clipPath3023"
       clipPathUnits="userSpaceOnUse">
      <path
         id="path3025"
         d="m 0,561.26 283.464,0 L 283.464,0 0,0 0,561.26 z"
         inkscape:connector-curvature="0" />
    </clipPath>
    <clipPath
       id="clipPath3011"
       clipPathUnits="userSpaceOnUse">
      <path
         id="path3013"
         d="m 0,561.24 283.44,0 L 283.44,0 0,0 0,561.24 z"
         inkscape:connector-curvature="0" />
    </clipPath>
    <clipPath
       id="clipPath3005"
       clipPathUnits="userSpaceOnUse">
      <path
         id="path3007"
         d="m 0,561.26 283.464,0 L 283.464,0 0,0 0,561.26 z"
         inkscape:connector-curvature="0" />
    </clipPath>
    <clipPath
       id="clipPath2999"
       clipPathUnits="userSpaceOnUse">
      <path
         id="path3001"
         clip-rule="evenodd"
         d="m 0,561.26 283.464,0 L 283.464,0 0,0 0,561.26 z"
         inkscape:connector-curvature="0" />
    </clipPath>
    <linearGradient
       inkscape:collect="always"
       xlink:href="#linearGradient3061"
       id="linearGradient3561"
       gradientUnits="userSpaceOnUse"
       gradientTransform="matrix(0,19.035,-19.035,0,245.783,29.93)"
       spreadMethod="pad"
       x1="0"
       y1="0"
       x2="1"
       y2="0" />
  </defs>
  <sodipodi:namedview
     id="base"
     pagecolor="#ffffff"
     bordercolor="#666666"
     borderopacity="1.0"
     inkscape:pageopacity="0.0"
     inkscape:pageshadow="2"
     inkscape:zoom="0.24748737"
     inkscape:cx="208.74117"
     inkscape:cy="-101.85341"
     inkscape:document-units="px"
     inkscape:current-layer="g2993"
     showgrid="false"
     inkscape:window-width="1366"
     inkscape:window-height="706"
     inkscape:window-x="-8"
     inkscape:window-y="-8"
     inkscape:window-maximized="1"
     fit-margin-bottom="5"
     fit-margin-top="5"
     fit-margin-right="5"
     fit-margin-left="5" />
  <metadata
     id="metadata7">
    <rdf:RDF>
      <cc:Work
         rdf:about="">
        <dc:format>image/svg+xml</dc:format>
        <dc:type
           rdf:resource="http://purl.org/dc/dcmitype/StillImage" />
        <dc:title></dc:title>
      </cc:Work>
    </rdf:RDF>
  </metadata>
  <g
     inkscape:label="Calque 1"
     inkscape:groupmode="layer"
     id="layer1"
     transform="translate(-302.04865,-375.95238)">
    <g
       transform="matrix(1.25,0,0,-1.25,197.85,883.15858)"
       inkscape:label="labanquepostale"
       id="g2993">
      <g
         id="g3515"
         transform="matrix(7.3773451,0,0,7.3773451,-1552.0052,-56.678019)">
        <path
           inkscape:connector-curvature="0"
           d="m 222.216,15.07 47.075,0 0,47.072 -47.075,0 0,-47.072 z"
           style="fill:#17479e;fill-opacity:1;fill-rule:nonzero;stroke:none"
           id="path3049" />
        <g
           id="g3051">
          <g
             id="g3053">
            <g
               id="g3059">
              <path
                 inkscape:connector-curvature="0"
                 d="m 256.789,28.681 -22.036,0 0,19.856 22.036,0 0,-19.856 z"
                 style="fill:url(#linearGradient3561);stroke:none"
                 id="path3069" />
            </g>
          </g>
        </g>
        <g
           id="g3459">
          <g
             transform="translate(235.526,35.037)"
             id="g3131">
            <path
               id="path3133"
               style="fill:#17479e;fill-opacity:1;fill-rule:nonzero;stroke:none"
               d="M 0,0 C 7.953,2.006 13.228,3.509 20.303,4.846 20.52,4.879 20.652,4.969 20.3,4.971 L 8.047,4.75 C 8.095,4.254 7.563,3.541 6.455,2.85 5.885,2.496 4.587,1.809 -0.015,0.08 -0.074,0.055 -0.046,-0.01 0,0"
               inkscape:connector-curvature="0" />
          </g>
          <g
             transform="translate(248.461,37.795)"
             id="g3135">
            <path
               id="path3137"
               style="fill:#17479e;fill-opacity:1;fill-rule:nonzero;stroke:none"
               d="M 0,0 -1.396,-1.789 C -1.59,-2.053 -1.96,-2.462 -2.485,-2.483 l -8.504,-0.272 -0.015,0.044 10.976,2.766 C 0.032,0.075 0.033,0.037 0,0"
               inkscape:connector-curvature="0" />
          </g>
          <g
             transform="translate(250.365,42.339)"
             id="g3139">
            <path
               id="path3141"
               style="fill:#17479e;fill-opacity:1;fill-rule:nonzero;stroke:none"
               d="M 0,0 C 1.089,-0.015 1.055,-0.697 0.55,-1.381 0.339,-1.664 0.264,-1.763 0.066,-2.007 l -7.048,-0.078 c -0.962,0.863 -2.803,1.571 -3.919,1.967 -0.207,0.084 -0.086,0.084 0.084,0.079 C -9.75,-0.032 -0.579,0.009 0,0"
               inkscape:connector-curvature="0" />
          </g>
        </g>
        <g
           id="g3481">
          <g
             transform="translate(230.079,52.562)"
             id="g3071">
            <path
               id="path3073"
               style="fill:#ffcb22;fill-opacity:1;fill-rule:nonzero;stroke:none"
               d="m 0,0 1.339,0 c 0.085,0 0.125,-0.019 0.125,-0.12 l 0,-0.465 c 0,-0.084 -0.02,-0.125 -0.119,-0.125 l -2.232,0 c -0.085,0 -0.126,0.021 -0.126,0.121 l 0,4.357 c 0,0.082 0.019,0.124 0.117,0.124 l 0.771,0 C -0.041,3.892 0,3.871 0,3.774 L 0,0"
               inkscape:connector-curvature="0" />
          </g>
          <g
             transform="translate(233.791,55.687)"
             id="g3075">
            <path
               id="path3077"
               style="fill:#ffcb22;fill-opacity:1;fill-rule:nonzero;stroke:none"
               d="m 0,0 -0.567,-1.983 1.119,0 L 0.021,0 0,0 z M 2.115,-3.711 C 2.141,-3.789 2.097,-3.836 1.999,-3.836 l -0.834,0 c -0.085,0 -0.113,0.025 -0.14,0.118 l -0.287,1.07 -1.496,0 -0.301,-1.07 c -0.025,-0.093 -0.053,-0.118 -0.138,-0.118 l -0.67,0 c -0.098,0 -0.143,0.047 -0.118,0.125 l 1.433,4.357 c 0.027,0.089 0.052,0.116 0.138,0.116 l 1.038,0 c 0.086,0 0.114,-0.027 0.138,-0.116 l 1.353,-4.357"
               inkscape:connector-curvature="0" />
          </g>
          <g
             transform="translate(238.56,53.916)"
             id="g3079">
            <path
               id="path3081"
               style="fill:#ffcb22;fill-opacity:1;fill-rule:nonzero;stroke:none"
               d="m 0,0 0,-1.437 0.593,0 c 0.561,0 0.829,0.22 0.829,0.757 C 1.422,-0.158 1.075,0 0.548,0 L 0,0 z m 0,1.939 0,-1.317 0.396,0 c 0.56,0 0.829,0.21 0.829,0.691 0,0.478 -0.349,0.626 -0.874,0.626 L 0,1.939 z m 0.396,0.594 c 1.02,0 1.847,-0.264 1.847,-1.123 0,-0.603 -0.526,-0.853 -0.854,-0.945 l 0,-0.021 C 1.993,0.312 2.44,-0.074 2.44,-0.711 2.44,-1.648 1.539,-2.064 0.593,-2.064 l -1.478,0 c -0.086,0 -0.126,0.019 -0.126,0.118 l 0,4.356 c 0,0.085 0.019,0.123 0.12,0.123 l 1.287,0"
               inkscape:connector-curvature="0" />
          </g>
          <g
             transform="translate(243.256,55.687)"
             id="g3083">
            <path
               id="path3085"
               style="fill:#ffcb22;fill-opacity:1;fill-rule:nonzero;stroke:none"
               d="m 0,0 -0.567,-1.983 1.121,0 L 0.018,0 0,0 z M 2.117,-3.711 C 2.141,-3.789 2.097,-3.836 1.998,-3.836 l -0.835,0 c -0.085,0 -0.112,0.025 -0.136,0.118 l -0.291,1.07 -1.492,0 -0.301,-1.07 c -0.027,-0.093 -0.055,-0.118 -0.139,-0.118 l -0.67,0 c -0.098,0 -0.146,0.047 -0.119,0.125 l 1.433,4.357 c 0.026,0.089 0.052,0.116 0.137,0.116 l 1.038,0 c 0.087,0 0.113,-0.027 0.138,-0.116 l 1.356,-4.357"
               inkscape:connector-curvature="0" />
          </g>
          <g
             transform="translate(246.757,54.748)"
             id="g3087">
            <path
               id="path3089"
               style="fill:#ffcb22;fill-opacity:1;fill-rule:nonzero;stroke:none"
               d="m 0,0 0,-2.771 c 0,-0.088 -0.019,-0.125 -0.118,-0.125 l -0.585,0 c -0.085,0 -0.124,0.019 -0.124,0.118 l 0,4.356 c 0,0.085 0.019,0.123 0.116,0.123 l 0.621,0 c 0.066,0 0.097,-0.026 0.144,-0.09 l 1.873,-2.798 0,2.765 c 0,0.085 0.02,0.123 0.118,0.123 l 0.585,0 c 0.085,0 0.125,-0.017 0.125,-0.113 l 0,-4.359 c 0,-0.088 -0.018,-0.125 -0.118,-0.125 l -0.605,0 c -0.059,0 -0.091,0.019 -0.125,0.066 L 0,0"
               inkscape:connector-curvature="0" />
          </g>
          <g
             transform="translate(252.338,52.396)"
             id="g3091">
            <path
               id="path3093"
               style="fill:#ffcb22;fill-opacity:1;fill-rule:nonzero;stroke:none"
               d="m 0,0 c 0.748,0 1.027,0.686 1.027,1.741 0,1.072 -0.279,1.768 -1.039,1.768 -0.748,0 -1.026,-0.682 -1.026,-1.741 C -1.038,0.696 -0.76,0 0,0 z M 0.107,-0.644 0,-0.65 c -1.518,0 -2.103,1.095 -2.103,2.453 0,1.254 0.604,2.358 2.091,2.358 1.517,0 2.101,-1.098 2.101,-2.451 0,-0.952 -0.345,-1.809 -1.148,-2.176 0.32,-0.15 0.717,-0.266 1.242,-0.309 0.086,-0.005 0.124,-0.021 0.124,-0.12 l 0,-0.479 c 0,-0.082 -0.018,-0.13 -0.116,-0.121 -0.823,0.078 -1.502,0.405 -2.084,0.851"
               inkscape:connector-curvature="0" />
          </g>
          <g
             transform="translate(257.713,56.326)"
             id="g3095">
            <path
               id="path3097"
               style="fill:#ffcb22;fill-opacity:1;fill-rule:nonzero;stroke:none"
               d="m 0,0 c 0,0.085 0.022,0.123 0.12,0.123 l 0.586,0 c 0.083,0 0.124,-0.018 0.124,-0.116 l 0,-2.792 c 0,-1.052 -0.552,-1.796 -1.748,-1.796 -1.267,0 -1.709,0.816 -1.709,1.833 l 0,2.748 c 0,0.085 0.021,0.123 0.119,0.123 l 0.768,0 c 0.084,0 0.125,-0.018 0.125,-0.116 l 0,-2.639 c 0,-0.7 0.138,-1.205 0.782,-1.205 0.69,0 0.833,0.521 0.833,1.222 L 0,0"
               inkscape:connector-curvature="0" />
          </g>
          <g
             transform="translate(260.509,53.909)"
             id="g3099">
            <path
               id="path3101"
               style="fill:#ffcb22;fill-opacity:1;fill-rule:nonzero;stroke:none"
               d="m 0,0 0,-1.348 1.807,0 c 0.086,0 0.126,-0.018 0.126,-0.12 l 0,-0.465 c 0,-0.088 -0.021,-0.125 -0.12,-0.125 l -2.7,0 c -0.088,0 -0.126,0.02 -0.126,0.119 l 0,4.356 c 0,0.085 0.02,0.123 0.121,0.123 l 2.563,0 c 0.083,0 0.124,-0.018 0.124,-0.116 l 0,-0.468 c 0,-0.087 -0.02,-0.121 -0.119,-0.121 l -1.676,0 0,-1.131 1.372,0 c 0.086,0 0.126,-0.015 0.126,-0.116 l 0,-0.464 C 1.498,0.037 1.479,0 1.379,0 L 0,0"
               inkscape:connector-curvature="0" />
          </g>
        </g>
        <g
           id="g3499">
          <g
             transform="translate(234.003,24.668)"
             id="g3103">
            <path
               id="path3105"
               style="fill:#ffcb22;fill-opacity:1;fill-rule:nonzero;stroke:none"
               d="m 0,0 0,-1.718 0.494,0 c 0.559,0 0.896,0.294 0.896,0.907 C 1.39,-0.213 0.976,0 0.449,0 L 0,0 z m 0,-2.381 0,-1.402 c 0,-0.081 -0.018,-0.125 -0.118,-0.125 l -0.767,0 c -0.085,0 -0.125,0.023 -0.125,0.118 l 0,4.357 c 0,0.089 0.018,0.128 0.118,0.128 l 1.386,0 c 1.019,0 1.913,-0.357 1.913,-1.472 0,-1.207 -0.934,-1.604 -1.905,-1.604 l -0.502,0"
               inkscape:connector-curvature="0" />
          </g>
          <g
             transform="translate(238.942,21.307)"
             id="g3107">
            <path
               id="path3109"
               style="fill:#ffcb22;fill-opacity:1;fill-rule:nonzero;stroke:none"
               d="m 0,0 c 0.747,0 1.024,0.685 1.024,1.741 0,1.072 -0.277,1.771 -1.038,1.771 C -0.765,3.512 -1.04,2.826 -1.04,1.77 -1.04,0.697 -0.765,0 0,0 z m 0,-0.652 c -1.52,0 -2.104,1.098 -2.104,2.455 0,1.254 0.604,2.354 2.09,2.354 1.519,0 2.102,-1.094 2.102,-2.446 C 2.088,0.446 1.484,-0.652 0,-0.652"
               inkscape:connector-curvature="0" />
          </g>
          <g
             transform="translate(242.57,21.362)"
             id="g3111">
            <path
               id="path3113"
               style="fill:#ffcb22;fill-opacity:1;fill-rule:nonzero;stroke:none"
               d="m 0,0 c 0.616,0 0.951,0.13 0.951,0.606 0,0.88 -2.063,0.553 -2.063,2.122 0,0.644 0.334,1.374 1.737,1.374 0.326,0 0.583,-0.033 0.827,-0.083 C 1.539,4.001 1.57,3.975 1.57,3.9 l 0,-0.494 C 1.57,3.322 1.524,3.262 1.433,3.29 1.243,3.342 1.039,3.391 0.69,3.391 c -0.573,0 -0.837,-0.171 -0.837,-0.555 0,-0.778 2.091,-0.587 2.091,-2.065 0,-0.874 -0.473,-1.479 -1.781,-1.479 -0.44,0 -0.749,0.033 -1.059,0.085 -0.085,0.02 -0.118,0.05 -0.118,0.123 l 0,0.509 c 0,0.088 0.048,0.144 0.139,0.121 C -0.592,0.051 -0.343,0 0,0"
               inkscape:connector-curvature="0" />
          </g>
          <g
             transform="translate(246.939,20.885)"
             id="g3115">
            <path
               id="path3117"
               style="fill:#ffcb22;fill-opacity:1;fill-rule:nonzero;stroke:none"
               d="m 0,0 c 0,-0.081 -0.02,-0.125 -0.117,-0.125 l -0.771,0 c -0.085,0 -0.124,0.023 -0.124,0.118 l 0,3.775 -1.253,0 c -0.087,0 -0.126,0.015 -0.126,0.119 l 0,0.464 c 0,0.087 0.018,0.127 0.119,0.127 l 3.528,0 c 0.088,0 0.125,-0.019 0.125,-0.119 l 0,-0.468 C 1.381,3.806 1.359,3.768 1.262,3.768 L 0,3.768 0,0"
               inkscape:connector-curvature="0" />
          </g>
          <g
             transform="translate(249.816,24.6)"
             id="g3119">
            <path
               id="path3121"
               style="fill:#ffcb22;fill-opacity:1;fill-rule:nonzero;stroke:none"
               d="m 0,0 -0.564,-1.984 1.117,0 L 0.02,0 0,0 z M 2.117,-3.715 C 2.144,-3.792 2.099,-3.84 2.002,-3.84 l -0.839,0 c -0.084,0 -0.112,0.029 -0.139,0.118 l -0.288,1.076 -1.492,0 -0.303,-1.076 C -1.084,-3.811 -1.109,-3.84 -1.193,-3.84 l -0.673,0 c -0.097,0 -0.145,0.048 -0.118,0.125 l 1.432,4.36 c 0.029,0.092 0.055,0.119 0.137,0.119 l 1.041,0 c 0.085,0 0.11,-0.027 0.138,-0.119 l 1.353,-4.36"
               inkscape:connector-curvature="0" />
          </g>
          <g
             transform="translate(253.539,21.471)"
             id="g3123">
            <path
               id="path3125"
               style="fill:#ffcb22;fill-opacity:1;fill-rule:nonzero;stroke:none"
               d="m 0,0 1.339,0 c 0.084,0 0.125,-0.02 0.125,-0.12 l 0,-0.466 c 0,-0.081 -0.02,-0.125 -0.119,-0.125 l -2.233,0 c -0.085,0 -0.124,0.023 -0.124,0.118 l 0,4.358 c 0,0.087 0.021,0.128 0.118,0.128 l 0.77,0 C -0.041,3.893 0,3.869 0,3.773 L 0,0"
               inkscape:connector-curvature="0" />
          </g>
          <g
             transform="translate(256.632,22.819)"
             id="g3127">
            <path
               id="path3129"
               style="fill:#ffcb22;fill-opacity:1;fill-rule:nonzero;stroke:none"
               d="m 0,0 0,-1.349 1.807,0 c 0.087,0 0.127,-0.019 0.127,-0.117 l 0,-0.469 c 0,-0.081 -0.021,-0.125 -0.119,-0.125 l -2.701,0 c -0.086,0 -0.123,0.024 -0.123,0.119 l 0,4.357 c 0,0.089 0.018,0.128 0.116,0.128 l 2.566,0 c 0.082,0 0.121,-0.02 0.121,-0.119 l 0,-0.469 C 1.794,1.871 1.778,1.833 1.677,1.833 l -1.677,0 0,-1.124 1.375,0 c 0.085,0 0.127,-0.021 0.127,-0.122 l 0,-0.464 C 1.502,0.039 1.48,0 1.381,0 L 0,0"
               inkscape:connector-curvature="0" />
          </g>
        </g>
      </g>
    </g>
  </g>
</svg>
