<svg width="1440" height="542" viewBox="0 0 1440 542" fill="none" xmlns="http://www.w3.org/2000/svg">
<g filter="url(#filter0_i)">
<path fill-rule="evenodd" clip-rule="evenodd" d="M0 0L48.0657 12.9048C96.1313 25.8095 192.263 51.619 288.394 51.619C384.525 51.619 480.657 25.8095 576.788 12.9048C672.919 0 769.051 0 865.182 64.5238C961.313 129.048 1033.41 171.286 1129.54 210C1225.67 248.714 1415.93 215.81 1464 190L1441.97 232.286V542H1393.9C1345.84 542 1249.71 542 1153.58 542C1057.44 542 961.313 542 865.182 542C769.051 542 672.919 542 576.788 542C480.657 542 384.525 542 288.394 542C192.263 542 96.1313 542 48.0657 542H0V0Z" fill="#010101" fill-opacity="0.86"/>
</g>
<defs>
<filter id="filter0_i" x="0" y="0" width="1464" height="546" filterUnits="userSpaceOnUse" color-interpolation-filters="sRGB">
<feFlood flood-opacity="0" result="BackgroundImageFix"/>
<feBlend mode="normal" in="SourceGraphic" in2="BackgroundImageFix" result="shape"/>
<feColorMatrix in="SourceAlpha" type="matrix" values="0 0 0 0 0 0 0 0 0 0 0 0 0 0 0 0 0 0 127 0" result="hardAlpha"/>
<feOffset dy="4"/>
<feGaussianBlur stdDeviation="2"/>
<feComposite in2="hardAlpha" operator="arithmetic" k2="-1" k3="1"/>
<feColorMatrix type="matrix" values="0 0 0 0 0 0 0 0 0 0 0 0 0 0 0 0 0 0 0.25 0"/>
<feBlend mode="normal" in2="shape" result="effect1_innerShadow"/>
</filter>
</defs>
</svg>
