<?xml version="1.0" encoding="UTF-8"?>
<svg xmlns="http://www.w3.org/2000/svg" xmlns:xlink="http://www.w3.org/1999/xlink" width="270pt" height="240pt" viewBox="0 0 270 240" version="1.1">
<g id="surface1">
<path style=" stroke:none;fill-rule:nonzero;fill:rgb(0%,0%,0%);fill-opacity:1;" d="M 268.371094 113.15625 C 242.949219 63.558594 192.625 30 135 30 C 77.375 30 27.039062 63.582031 1.628906 113.160156 C -0.542969 117.460938 -0.542969 122.542969 1.628906 126.84375 C 27.050781 176.441406 77.375 210 135 210 C 192.625 210 242.960938 176.417969 268.371094 126.839844 C 270.542969 122.539062 270.542969 117.457031 268.371094 113.15625 Z M 135 187.5 C 97.71875 187.5 67.5 157.28125 67.5 120 C 67.5 82.71875 97.71875 52.5 135 52.5 C 172.28125 52.5 202.5 82.71875 202.5 120 C 202.519531 157.289062 172.289062 187.519531 135 187.5 Z M 135 75 C 130.984375 75.054688 126.992188 75.65625 123.132812 76.777344 C 129.703125 85.703125 128.765625 98.09375 120.929688 105.929688 C 113.09375 113.765625 100.703125 114.703125 91.777344 108.132812 C 86.734375 126.71875 94.101562 146.453125 110.09375 157.179688 C 126.085938 167.90625 147.140625 167.246094 162.421875 155.53125 C 177.703125 143.8125 183.8125 123.65625 177.605469 105.425781 C 171.398438 87.195312 154.257812 74.957031 135 75 Z M 135 75 "/>
</g>
</svg>
